<?xml version="1.0" encoding="UTF-8"?>
<!-- Generator: Adobe Illustrator 28.1.0, SVG Export Plug-In . SVG Version: 6.00 Build 0)  -->
<svg xmlns="http://www.w3.org/2000/svg" xmlns:xlink="http://www.w3.org/1999/xlink" version="1.1" id="Layer_1" x="0px" y="0px" viewBox="0 0 1040.9 474" style="enable-background:new 0 0 1040.9 474;" xml:space="preserve">
<style type="text/css">
	.st0{enable-background:new    ;}
	.st1{fill:#00606B;}
	.st2{fill:#DC5711;stroke:#DC5711;stroke-width:3.37;stroke-miterlimit:10;}
	.st3{fill:none;stroke:#DC5711;stroke-width:10;stroke-linecap:round;stroke-miterlimit:10;}
	.st4{fill:#DC5711;}
	.st5{fill:#FFFFFF;}
</style>
<g class="st0">
	<path class="st1" d="M125.3,305.8c-1.9,3.5-3.6,6.8-5,9.7c-0.9,1.8-1.6,1.9-3.2,1.2c-1.4-0.6-2.9-1.4-4.1-2.8   c-1.2-1.4-1.2-2.5-0.2-4.9c5.6-12.5,16.7-33.2,24-44.5c1.4-2.1,2.9-3.2,5.9-3.1c3.5,0.1,8.1,1.3,10.8,2.4c2,0.9,2.3,2.1,2,4.3   c-1.5,10.7-3.5,31.2-4.6,46.9c-0.1,2-0.6,2.5-2.5,2.5c-1.9,0-4.1-0.3-5.3-0.8c-1.7-0.6-2.2-1.7-2.2-4.2c0-2.7,0.2-6,0.3-9.6   C135.8,303.6,129.6,304.6,125.3,305.8z M141.8,292.2c0.5-6.7,1.2-13.7,2-19.7c-3.3,5.6-7.7,13.3-11.9,21   C135.2,293,138.6,292.5,141.8,292.2z"></path>
	<path class="st1" d="M196.3,273.3c-1.2,3.1-2.5,7.1-4.1,11.5c2-0.3,4.2-0.5,6.3-0.6c1.9-0.1,3,0.7,3.5,2c0.7,1.7,0.9,3.3,1.2,4.9   c0.3,1.9-0.2,2.5-2.1,2.8c-4.1,0.8-8.7,1.7-12.8,2.7c-2.2,6.7-4.3,13.4-5.9,18.5c-0.6,1.9-1.5,2.2-3.3,1.7   c-1.8-0.5-3.8-1.3-5.3-2.3c-1.5-1.1-1.6-2.3-1.2-4.7c1.3-7,6.6-24.6,11.1-37.2c-0.9-1.7-1.6-4.2-2-5.4c-0.4-1.7,0.2-2,1.4-2.4   c5.8-1.7,16.2-2.9,24-3.2c1.9-0.1,2.7,0.3,3.6,2.3c0.8,1.8,1.1,3.2,1.2,4.9c0.1,1.9-0.3,2.4-2.2,2.6   C205.6,272,200.9,272.7,196.3,273.3z"></path>
</g>
<g class="st0">
	<path class="st1" d="M215.1,315.3c-0.5,1.8-1.1,2.1-2.9,1.7c-1.8-0.5-3.4-1.1-4.6-2c-1.5-1.1-1.7-2.3-1.3-4.7   c1.6-7.8,6.1-22.7,10-34.9c-0.7-1.3-1.5-2.9-2-4.3c-0.8-2.1-0.7-3.1,1.1-4.2c8.3-4.7,24.3-8.7,29.5-2.5c2.1,2.5,3.9,6.1,4.5,10.6   c0.6,4.8-1.6,8.7-4.9,11.9c-3.4,3.3-8.2,6.6-13.8,9.4c2.7,4.6,7.2,10.8,10.5,14.6c1.4,1.5,0.9,2.4-0.3,3.4   c-1.4,1.2-2.2,1.4-3.7,1.8c-1.6,0.5-3.7,0.6-6-1.6c-3.2-2.9-8.1-9.4-11.3-15C218.2,305.1,216.5,310.4,215.1,315.3z M223.9,288.5   c10-3.8,16.6-11.6,15.9-14.3c-0.4-2-5.3-2.4-10.7,0.3C227.5,278.4,225.8,283.3,223.9,288.5z"></path>
</g>
<g class="st0">
	<path class="st1" d="M253.7,267.2c-0.3-1.7,0.1-2,1.4-2.4c5.9-1.7,16.7-3,24.6-3.2c1.8-0.1,2.9,0.8,3.3,2.4c0.6,1.8,0.9,3.1,1,4.8   c0.1,1.9-0.4,2.5-2.3,2.7c-3.9,0.4-8.8,1-13.3,1.8c-1.3,3.5-2.8,7.5-4.3,11.6c2.1-0.3,4.2-0.5,6.5-0.6c1.9-0.1,2.9,0.3,3.5,2   c0.6,1.7,1,3.2,1.2,4.9c0.3,1.9-0.3,2.4-2.1,2.8c-4.3,0.8-9.2,1.8-13.4,2.9c-0.9,2.6-1.9,5.3-2.6,7.7c3.5-0.7,6.5-1.1,10.2-1.4   c1.9-0.2,3,0.3,3.6,1.9c0.7,1.8,1.1,3.3,1.3,5c0.3,1.9-0.2,2.5-2,2.9c-4.8,1.1-10.3,2.3-14.9,3.6c-2.6,0.7-3.8,0.3-5.4-0.9   c-1.1-0.9-2.2-2-3.4-3.7c-0.9-1.3-1.5-3.1-1-5.5c1.7-7.6,6.5-22.4,10.3-33.7C254.8,271.2,254.1,268.8,253.7,267.2z"></path>
</g>
<g class="st0">
	<path class="st1" d="M283.4,302.9c5,4.4,9.9,5.9,12,4c2.5-2-6.4-7.4-10.9-12.6c-3.1-3.7-4.7-9.3-1.9-15.5   c2.4-5.5,7.7-11.9,12.8-15.1c2-1.2,5.2-2.5,8.8-1.2c2.7,1,5.8,3,7.4,4.8c2.4,2.6,2.1,5.5,1.9,7.8c-0.6,3.9-2.7,10.5-4.5,14   c-0.9,1.6-1.7,2-3.2,1.3c-4.3-1.9-6.3-4.5-5.5-7.9c0.7-3.1,3.2-9.5,2.2-10c-1.8-1-12.8,10.2-8.2,16.4c5,6.6,16,11,12,18.7   c-2.9,5.6-7.6,9.8-14.5,9.8c-5.6,0-11.1-2.6-15.8-9.4c-2.5-3.5-2.1-4.8-0.5-5.6C278,301.1,281.6,301.4,283.4,302.9z"></path>
</g>
<g class="st0">
	<path class="st1" d="M338.9,315.5c-0.5,1.9-1.1,2.2-2.9,1.7c-1.8-0.5-3.7-1.3-5.2-2.4c-1.4-1.1-1.7-2.2-1.2-4.7   c0.7-3.3,1.9-7.8,3.2-12.8c-2.7,0.4-6.1,1-9.1,1.6c-1.9,6.1-3.6,11.9-4.8,16.4c-0.5,1.9-1.2,2.2-3,1.7c-1.7-0.5-3.8-1.4-5.3-2.5   c-1.5-1.1-1.8-2.2-1.3-4.7c0.7-3.1,1.9-7.9,3.3-13.3c-0.6-1.4-1.1-2.8-1.3-3.8c-0.3-1.5-0.1-2,1.4-2.5c0.6-0.2,1.2-0.3,1.8-0.5   c2.7-9.6,5.8-19.8,7.9-25.6c0.9-2.2,1.9-2.5,3.7-1.8c1.9,0.7,4.5,2,6,3.2c1.7,1.4,1.9,2.1,1.2,4.1c-1.6,4.3-3.8,10.8-6,17.8   c2.9-0.3,6.4-0.7,8.6-0.8c2.6-8.5,5.3-17.2,7.4-23.3c0.8-2.3,1.9-2.4,3.7-1.8c1.8,0.6,4,1.7,5.7,3.1c1.5,1.2,1.8,2.1,1.1,4.1   C349.7,280.3,343.3,300.4,338.9,315.5z"></path>
</g>
<g class="st0">
	<path class="st1" d="M399.9,317.4c-5.5-1.6-7.2-2.5-7.2-6.5c0-3.2,1.1-15.1,1.9-22.4c-4.7,8.8-11.7,23-13.9,27.2   c-1.1,2.2-2,2.3-4.7,1.6c-1.4-0.3-3.3-1-4.8-1.8c-1.4-0.8-1.9-1.7-1.9-3.2c0-8.2,3.5-32,6.5-47.4c0.3-1.7,0.9-2.5,2.1-2.5   c1.6,0,5,1.1,6.7,2.3c1.4,0.9,1.7,2.1,1.3,4.6c-0.8,4.3-4.1,20.6-6,30.3c5.2-10.8,13.5-27.5,15.6-31c1.1-1.8,1.9-2,4.2-1.4   c1.3,0.3,2.9,1,4,1.8c1.4,1,1.7,2.1,1.4,4.2c-0.3,2.3-2.1,17.3-3.5,27.5c5.2-13.3,14-32.4,16.6-36.9c1.1-2,2-2.3,4.1-1.4   c1.5,0.7,3.4,2,4.4,3.2c1.2,1.5,0.9,3.1-0.2,5.3c-5.6,11.1-16.4,33.2-21.5,44.8C404.1,318,402.9,318.2,399.9,317.4z"></path>
</g>
<g class="st0">
	<path class="st1" d="M427.2,305.8c-1.9,3.5-3.6,6.8-5,9.7c-0.9,1.8-1.6,1.9-3.2,1.2c-1.4-0.6-2.9-1.4-4.1-2.8   c-1.2-1.4-1.2-2.5-0.2-4.9c5.6-12.5,16.7-33.2,24-44.5c1.4-2.1,2.9-3.2,5.9-3.1c3.5,0.1,8.1,1.3,10.8,2.4c2,0.9,2.3,2.1,2,4.3   c-1.5,10.7-3.5,31.2-4.6,46.9c-0.1,2-0.6,2.5-2.5,2.5c-1.9,0-4.1-0.3-5.3-0.8c-1.7-0.6-2.2-1.7-2.2-4.2c0-2.7,0.2-6,0.3-9.6   C437.7,303.6,431.6,304.6,427.2,305.8z M443.7,292.2c0.5-6.7,1.2-13.7,2-19.7c-3.3,5.6-7.7,13.3-11.9,21   C437.1,293,440.5,292.5,443.7,292.2z"></path>
</g>
<g class="st0">
	<path class="st1" d="M475.7,299.8c-1.9,5.8-3.6,11.5-5,16.5c-0.5,1.9-1.2,2.1-3,1.6c-1.7-0.5-3.7-1.4-5.2-2.5   c-1.4-1.2-1.8-2.3-1.2-4.8c0.8-3.8,2.3-9.3,3.9-15.1c-1.3-10.1-3.1-22.4-4.4-30.8c-0.3-1.9,0.2-2.5,2-2.7c1.9-0.3,4-0.3,5.8,0.1   c1.8,0.4,2.5,1.4,3,3.8c0.8,4.3,1.9,11.1,2.7,17.9c4.3-6.8,9-14.5,13.1-21.1c1-1.7,2-1.9,3.6-0.9c1.6,1,2.9,2,3.9,3.5   c1.1,1.5,0.9,2.6-0.2,4.9C491.7,276,483.1,289,475.7,299.8z"></path>
</g>
<g class="st0">
	<path class="st1" d="M540.5,271.9c-4.6,13.3-9.9,30.4-13.7,43.8c-0.5,1.8-1.1,2.1-2.9,1.6s-3.7-1.4-5.3-2.5   c-1.5-1.1-1.7-2.4-1.2-4.8c1.8-8.9,6.6-25.6,10.2-36.4c-2,0.3-4.1,0.8-5.4,1c-1.8,0.3-2.7,0.2-3.7-1.4c-1-1.7-2-4.5-2.4-6.1   c-0.3-1.7,0.3-2.1,1.6-2.5c8-1.8,20.6-3.1,28.5-3.2c2,0,2.6,0.5,3.2,1.4c1.1,1.7,1.9,4,2.1,5.6c0.3,1.8,0.1,2.3-2,2.5   C547.1,271.2,543.5,271.6,540.5,271.9z"></path>
</g>
<g class="st0">
	<path class="st1" d="M581.7,274.1c0.6,11.6-4.2,30.1-13.8,39.5c-3.2,3.1-6.7,4-10.9,3.5c-2.7-0.3-6-1.4-8.2-2.9   c-1.7-1.2-3.6-3.5-4.3-6.1c-3.7-12.2,3.7-33.7,15.6-43.5c2.5-2,6.3-3.1,9-2.6c3.6,0.5,7.2,2,9.2,4   C580.6,268.2,581.5,270.9,581.7,274.1z M558,288.1c-3,7.9-4.6,18.7-1.4,20c3.1,1.3,7.9-6.1,11.3-16.2c2.6-7.8,4.5-19.5,1.8-20.3   C567.1,270.7,561,280.1,558,288.1z"></path>
</g>
<g class="st0">
	<path class="st1" d="M634.9,298.4c0.1,4-1.5,6.6-4.5,9.4c-4.2,4-12.2,8.1-17.5,9.7c-3.1,1-4.2,0.9-6.2-0.7   c-2.1-1.6-3.2-2.7-5.2-4.8c-2-2.2-2.2-3.1-1.4-6.4c2-8.4,6.2-21.2,9.4-31.3c-0.6-1.1-1.3-2.5-1.8-3.8c-0.8-2.1-0.7-3.2,1.2-4.2   c8.4-4.5,24.7-7.7,29.6-1.9c2,2.5,3.6,5.4,3.9,9.5c0.3,4.5-2.5,8.7-5.7,11.6c-1.7,1.5-3.7,3.1-6.1,4.6   C633.2,291.8,634.8,295.1,634.9,298.4z M610.3,306.8c8.1-2.5,13.9-6.9,13.5-9.9c-0.2-1.8-4.2-3-10.2-0.7   C612.5,299.7,611.3,303.3,610.3,306.8z M632.2,273.3c-0.3-1.9-4.8-2-11,1c-1.2,3.3-2.6,7.1-4,11.3   C626.5,282.2,632.6,275.7,632.2,273.3z"></path>
	<path class="st1" d="M644.6,315.3c-0.5,1.8-1.1,2.1-2.9,1.7c-1.8-0.5-3.4-1.1-4.6-2c-1.5-1.1-1.7-2.3-1.3-4.7   c1.6-7.8,6.1-22.7,10-34.9c-0.7-1.3-1.5-2.9-2-4.3c-0.8-2.1-0.7-3.1,1.1-4.2c8.3-4.7,24.3-8.7,29.5-2.5c2.1,2.5,3.9,6.1,4.5,10.6   c0.6,4.8-1.6,8.7-4.9,11.9c-3.4,3.3-8.2,6.6-13.8,9.4c2.7,4.6,7.2,10.8,10.5,14.6c1.4,1.5,0.9,2.4-0.3,3.4   c-1.4,1.2-2.2,1.4-3.7,1.8c-1.6,0.5-3.7,0.6-6-1.6c-3.2-2.9-8.1-9.4-11.3-15C647.7,305.1,646,310.4,644.6,315.3z M653.4,288.5   c10-3.8,16.6-11.6,15.9-14.3c-0.4-2-5.3-2.4-10.7,0.3C657,278.4,655.3,283.3,653.4,288.5z"></path>
</g>
<g class="st0">
	<path class="st1" d="M684.9,267.2c-0.3-1.7,0.1-2,1.4-2.4c5.9-1.7,16.7-3,24.6-3.2c1.8-0.1,2.9,0.8,3.3,2.4c0.6,1.8,0.9,3.1,1,4.8   c0.1,1.9-0.4,2.5-2.3,2.7c-3.9,0.4-8.8,1-13.3,1.8c-1.3,3.5-2.8,7.5-4.3,11.6c2.1-0.3,4.2-0.5,6.5-0.6c1.9-0.1,2.9,0.3,3.5,2   c0.6,1.7,1,3.2,1.2,4.9c0.3,1.9-0.3,2.4-2.1,2.8c-4.3,0.8-9.2,1.8-13.4,2.9c-0.9,2.6-1.9,5.3-2.6,7.7c3.5-0.7,6.5-1.1,10.2-1.4   c1.9-0.2,3,0.3,3.6,1.9c0.7,1.8,1.1,3.3,1.3,5c0.3,1.9-0.2,2.5-2,2.9c-4.8,1.1-10.3,2.3-14.9,3.6c-2.6,0.7-3.8,0.3-5.4-0.9   c-1.1-0.9-2.2-2-3.4-3.7c-0.9-1.3-1.5-3.1-1-5.5c1.7-7.6,6.5-22.4,10.3-33.7C686,271.2,685.2,268.8,684.9,267.2z"></path>
</g>
<g class="st0">
	<path class="st1" d="M718.4,305.8c-1.9,3.5-3.6,6.8-5,9.7c-0.9,1.8-1.6,1.9-3.2,1.2c-1.4-0.6-2.9-1.4-4.1-2.8   c-1.2-1.4-1.2-2.5-0.2-4.9c5.6-12.5,16.7-33.2,24-44.5c1.4-2.1,2.9-3.2,5.9-3.1c3.5,0.1,8.1,1.3,10.8,2.4c2,0.9,2.3,2.1,2,4.3   c-1.5,10.7-3.5,31.2-4.6,46.9c-0.1,2-0.6,2.5-2.5,2.5s-4.1-0.3-5.3-0.8c-1.7-0.6-2.2-1.7-2.2-4.2c0-2.7,0.2-6,0.3-9.6   C728.9,303.6,722.8,304.6,718.4,305.8z M734.9,292.2c0.5-6.7,1.2-13.7,2-19.7c-3.3,5.6-7.7,13.3-11.9,21   C728.3,293,731.7,292.5,734.9,292.2z"></path>
	<path class="st1" d="M779,311.3c0.9,1.5,0.5,2.5-1,3.4c-1,0.6-2.6,1.1-3.8,1.4c-2,0.5-4.1,0.4-5.8-2.2c-1.4-2.3-4.9-8.2-7.3-13.8   c-1.7,5.8-3.3,11.1-4.5,15.3c-0.5,1.9-1.1,2.2-2.9,1.7c-1.8-0.5-3.9-1.4-5.4-2.5c-1.4-1.1-1.7-2.2-1.2-4.7   c2-9.7,9.4-35.9,13.3-46.4c0.8-2,1.9-2.4,3.7-1.8c1.9,0.6,4.5,2,6,3.2c1.7,1.4,2,2,1.2,4c-1.4,3.8-3.2,9.3-5.2,15.3   c6.9-7.3,15.8-17,19.7-21.8c1.3-1.5,2.2-1.5,3.5-0.2c1.2,1.3,2.3,3.1,2.8,5c0.4,1.5,0.2,3.1-1.2,5.4c-3.7,5.9-12.5,15.4-19.6,22.4   C773.7,300.9,777,307.8,779,311.3z"></path>
</g>
<g class="st0">
	<path class="st1" d="M808.8,273.3c-1.2,3.1-2.5,7.1-4.1,11.5c2-0.3,4.2-0.5,6.3-0.6c1.9-0.1,3,0.7,3.5,2c0.7,1.7,0.9,3.3,1.2,4.9   c0.3,1.9-0.2,2.5-2.1,2.8c-4.1,0.8-8.7,1.7-12.8,2.7c-2.2,6.7-4.3,13.4-5.9,18.5c-0.6,1.9-1.5,2.2-3.3,1.7   c-1.8-0.5-3.8-1.3-5.3-2.3c-1.5-1.1-1.6-2.3-1.2-4.7c1.3-7,6.6-24.6,11.1-37.2c-0.9-1.7-1.6-4.2-2-5.4c-0.4-1.7,0.2-2,1.4-2.4   c5.8-1.7,16.2-2.9,24-3.2c1.9-0.1,2.7,0.3,3.6,2.3c0.8,1.8,1.1,3.2,1.2,4.9c0.1,1.9-0.3,2.4-2.2,2.6   C818.1,272,813.4,272.7,808.8,273.3z"></path>
</g>
<g class="st0">
	<path class="st1" d="M824.4,305.8c-1.9,3.5-3.6,6.8-5,9.7c-0.9,1.8-1.6,1.9-3.2,1.2c-1.4-0.6-2.9-1.4-4.1-2.8   c-1.2-1.4-1.2-2.5-0.2-4.9c5.6-12.5,16.7-33.2,24-44.5c1.4-2.1,2.9-3.2,5.9-3.1c3.5,0.1,8.1,1.3,10.8,2.4c2,0.9,2.3,2.1,2,4.3   c-1.5,10.7-3.5,31.2-4.6,46.9c-0.1,2-0.6,2.5-2.5,2.5s-4.1-0.3-5.3-0.8c-1.7-0.6-2.2-1.7-2.2-4.2c0-2.7,0.2-6,0.3-9.6   C834.9,303.6,828.8,304.6,824.4,305.8z M840.9,292.2c0.5-6.7,1.2-13.7,2-19.7c-3.3,5.6-7.7,13.3-11.9,21   C834.3,293,837.7,292.5,840.9,292.2z"></path>
</g>
<g class="st0">
	<path class="st1" d="M861.7,302.9c5,4.4,9.9,5.9,12,4c2.5-2-6.4-7.4-10.9-12.6c-3.1-3.7-4.7-9.3-1.9-15.5   c2.4-5.5,7.7-11.9,12.8-15.1c2-1.2,5.2-2.5,8.8-1.2c2.7,1,5.8,3,7.4,4.8c2.4,2.6,2.1,5.5,1.9,7.8c-0.6,3.9-2.7,10.5-4.5,14   c-0.8,1.6-1.7,2-3.2,1.3c-4.3-1.9-6.3-4.5-5.5-7.9c0.7-3.1,3.2-9.5,2.2-10c-1.8-1-12.8,10.2-8.2,16.4c5,6.6,16,11,12,18.7   c-2.9,5.6-7.6,9.8-14.5,9.8c-5.6,0-11.1-2.6-15.8-9.4c-2.5-3.5-2.1-4.8-0.5-5.6C856.3,301.1,860,301.4,861.7,302.9z"></path>
</g>
<g class="st0">
	<path class="st1" d="M917.5,271.9c-4.6,13.3-9.9,30.4-13.7,43.8c-0.5,1.8-1.1,2.1-2.9,1.6s-3.7-1.4-5.3-2.5   c-1.5-1.1-1.7-2.4-1.2-4.8c1.8-8.9,6.6-25.6,10.2-36.4c-2,0.3-4.1,0.8-5.4,1c-1.8,0.3-2.7,0.2-3.7-1.4c-1-1.7-2-4.5-2.4-6.1   c-0.3-1.7,0.3-2.1,1.6-2.5c8-1.8,20.6-3.1,28.5-3.2c2,0,2.6,0.5,3.2,1.4c1.1,1.7,1.9,4,2.1,5.6c0.3,1.8,0.1,2.3-2,2.5   C924.1,271.2,920.5,271.6,917.5,271.9z"></path>
</g>
<path class="st2" d="M187.6,360.2c6-0.9,11.9-1.6,17.8-2.3s11.9-1.3,17.8-1.8c11.9-1.1,23.7-1.9,35.5-2.4c3-0.2,5.9-0.3,8.8-0.4  l4.4-0.2l4.4-0.1c5.9-0.2,11.8-0.3,17.6-0.2c5.9,0.1,11.7,0.3,17.5,0.6c5.8,0.3,11.6,0.7,17.3,1.3c0.7,0.1,1.1,0.7,0.9,1.4  c-0.2,0.7-0.9,1.2-1.6,1.1l0,0h0c-5.7-0.6-11.4-1-17.2-1.4s-11.5-0.6-17.4-0.8c-5.8-0.1-11.6-0.1-17.5,0l-4.4,0.1l-4.4,0.1  c-2.9,0.1-5.9,0.2-8.8,0.3c-11.8,0.5-23.6,1.2-35.4,2.2c-5.9,0.5-11.8,1-17.7,1.7c-5.9,0.6-11.9,1.3-17.8,2.2h0  c-0.4,0.1-0.8-0.2-0.8-0.6C186.8,360.7,187.1,360.3,187.6,360.2L187.6,360.2z"></path>
<path class="st2" d="M178.4,349.8c6.9-1,13.7-1.9,20.6-2.7c6.9-0.8,13.7-1.5,20.5-2.1c13.7-1.2,27.3-2.2,40.9-2.8  c3.4-0.2,6.8-0.3,10.2-0.4l5.1-0.2l5.1-0.1c6.8-0.2,13.6-0.3,20.3-0.2c6.8,0.1,13.5,0.4,20.1,0.8c6.7,0.4,13.4,0.8,20,1.5  c0.8,0.1,1.3,0.8,1,1.5c-0.2,0.8-1,1.4-1.8,1.3l0,0h0c-6.6-0.6-13.2-1.2-19.8-1.6c-6.6-0.4-13.3-0.7-20-0.9  c-6.7-0.2-13.4-0.1-20.2,0.1l-5.1,0.1l-5.1,0.2c-3.4,0.1-6.8,0.2-10.2,0.4c-13.6,0.6-27.2,1.4-40.8,2.5c-6.8,0.6-13.6,1.2-20.5,2  c-6.8,0.7-13.7,1.5-20.5,2.5h0c-0.5,0.1-0.9-0.3-0.9-0.8C177.5,350.3,177.9,349.8,178.4,349.8L178.4,349.8z"></path>
<path class="st1" d="M475.3,415.5c2.6,0.5,5.1-0.5,6.9-2.2l22.7,3.1l-30.7,22.9c-1.2-0.8-2.9-0.8-4.1,0.1c-1.7,1.2-2.1,3.5-0.9,5.2  c1.2,1.7,3.5,2.1,5.2,0.9c1.2-0.8,1.7-2.3,1.5-3.6l34.9-22.5l-1,41.3c-3.3,2-4.4,6.3-2.5,9.6c2,3.4,6.3,4.6,9.7,2.6  c3.4-2,4.6-6.3,2.6-9.7c-0.5-1-1.3-1.7-2.2-2.3l-1.7-41.5l19.7,20.4c-0.4,1.1-0.5,2.3-0.2,3.5c0.8,3,3.9,4.8,6.9,4  c3-0.8,4.8-3.9,4-6.9c-0.8-2.9-3.6-4.6-6.5-4l-18.5-17.7l37.5,5.2c0.3,1.2,1.3,2.2,2.6,2.4c1.8,0.3,3.5-0.9,3.8-2.6  c0.3-1.8-0.9-3.5-2.7-3.8c-1.4-0.2-2.7,0.5-3.4,1.6l-38.6-8.3l37.3-24.1c3.2,1.5,7.1,1.3,10.2-0.9c4.7-3.2,5.8-9.7,2.5-14.3  c-3.2-4.6-9.7-5.8-14.3-2.5c-3.3,2.3-4.8,6.2-4.2,9.9l-36.7,27.4l-1.1-26.9c0.1-0.1,0.3-0.1,0.4-0.1c1.6-0.9,2.1-2.9,1.2-4.5  c-0.9-1.6-2.9-2.1-4.5-1.2c-1.6,0.9-2.1,2.9-1.2,4.5c0.4,0.6,0.9,1,1.5,1.3l-0.6,27.3l-32.2-31c0.2-0.6,0.4-1.2,0.2-1.9  c-0.4-1.5-1.9-2.4-3.4-2s-2.4,1.9-2,3.4c0.4,1.5,1.9,2.4,3.4,2c0,0,0.1,0,0.1,0l29.8,30.8l-23-4.9c-0.9-2.5-3.1-4.5-5.9-5  c-4.2-0.7-8.2,2.1-8.9,6.3C468.3,410.8,471.1,414.8,475.3,415.5L475.3,415.5z"></path>
<line class="st3" x1="20.5" y1="411.7" x2="394.1" y2="411.7"></line>
<line class="st3" x1="646.8" y1="411.7" x2="1020.5" y2="411.7"></line>
<g class="st0">
	<path class="st4" d="M109.6,24.8L90.1,186.5H64.7l-8.8-82.1l-9,82.1H21.6L2.7,24.8h28.1l6.7,85.7l8.6-85.7h19.3l9,87.6l6.9-87.6   H109.6z"></path>
	<path class="st4" d="M189.8,186.1h-56.7V24.8h56.5V47h-28.6v44.7h23.7v22.7h-23.7v49.4h28.8V186.1z"></path>
	<path class="st4" d="M272.4,186.1h-56.7V24.8h56.5V47h-28.6v44.7h23.7v22.7h-23.7v49.4h28.8V186.1z"></path>
	<path class="st4" d="M372.3,186.5h-29l-13.2-66.2l-4,10.5v55.7h-27.9V24.8h27.9v47.7l17-47.7h26.7l-22.3,58.8L372.3,186.5z"></path>
	<path class="st4" d="M462.6,152.2c0,25.6-13,33.8-35.1,33.8h-34.9V24.8h34.2c23.3,0,35.7,8.8,35.7,36.5V152.2z M434.7,58.4   c0-9.2-2.7-11.3-8.6-11.3h-5.5v116.8h5c6.7,0,9-2.7,9-10.3V58.4z"></path>
</g>
<g class="st0">
	<path class="st4" d="M557.5,186.1h-28.1l-2.1-22.5h-16.6l-2.1,22.5h-23.3l20.8-161.3h30L557.5,186.1z M524.6,141.1l-5-64.3   l-6.5,64.3H524.6z"></path>
</g>
<g class="st0">
	<path class="st4" d="M635.9,24.8l-23.5,98.9v62.8h-27.9v-63l-23.5-98.7h29.4l9.2,61.1l10.1-61.1H635.9z"></path>
	<path class="st4" d="M754.9,186.1h-56.7V24.8h56.5V47h-28.6v44.7h23.7v22.7h-23.7v49.4h28.8V186.1z"></path>
</g>
<g class="st0">
	<path class="st4" d="M848.4,186.1h-28.1l-2.1-22.5h-16.6l-2.1,22.5h-23.3l20.8-161.3h30L848.4,186.1z M815.4,141.1l-5-64.3   l-6.5,64.3H815.4z"></path>
</g>
<g class="st0">
	<path class="st4" d="M926.5,47h-22.1v139.4h-27.9V47h-21.8V24.8h71.8V47z"></path>
	<path class="st4" d="M1013.7,151.6c0,25.8-13.4,37-33.8,37c-21.6,0-30.2-13.2-30.2-36.5c0-8.8,0.8-16.8,1.7-22.7l21,2.5   c-0.8,6.1-1.5,12.4-1.5,17.9c0,13.7,2.3,17.2,7.4,17.2c4.6,0,7.1-3.6,7.1-13.4v-4.4c0-12-3.4-22.9-17-39.5   c-13.7-16.4-19.1-29.6-19.1-48.1V59c0-21,8.2-37,32.1-37c22.9,0,30,14.5,30,36.5c0,8-0.6,13.7-1.5,20L988.7,76   c0.6-5.5,1-6.7,1-15.1c0-14.1-2.1-17.4-6.5-17.4c-4.6,0-6.1,3.2-6.1,12.6v3.4c0,9.2,3.6,18.7,13.4,31.3   c13.9,17.9,23.1,37.2,23.1,57.8V151.6z"></path>
</g>
<g class="st0">
	<path class="st5" d="M96.8,34l-16,143H72L55.9,40.7L40.3,177h-9L15.5,34h4.2l15.3,139.9h1.3L53.6,34h4.6l17.6,139.9h1.3L92.6,34   H96.8z"></path>
	<path class="st5" d="M180.6,177.2h-35.7V34h35.7v4h-31.5v63h26.7v4h-26.7v68.3h31.5V177.2z"></path>
	<path class="st5" d="M263.1,177.2h-35.7V34h35.7v4h-31.5v63h26.7v4h-26.7v68.3h31.5V177.2z"></path>
	<path class="st5" d="M358,177h-4.2l-20.6-89l-19.1,47v42H310V34h4.2v91.1l37-91.1h4.2l-19.5,47.7L358,177z"></path>
	<path class="st5" d="M450.7,153.5c0,16.6-6.9,23.5-24.6,23.5h-21.6V34h22.5c17.6,0,23.7,5.9,23.7,24.6V153.5z M446.7,57.5   c0-14.3-4.6-19.5-19.7-19.5h-18.3v135h17.2c15.1,0,20.8-5.9,20.8-19.3V57.5z"></path>
</g>
<g class="st0">
	<path class="st5" d="M544.5,177.2h-4.4l-2.5-23.1h-35.5l-2.5,23.1h-4.4L512.6,34h14.3L544.5,177.2z M537,150.1L523.5,38h-7.4   l-13.4,112.1H537z"></path>
</g>
<g class="st0">
	<path class="st5" d="M622.4,34l-21.6,95.1V177h-4.2v-47.7L574.8,34h4.2l19.7,90.3L618.2,34H622.4z"></path>
	<path class="st5" d="M745.7,177.2H710V34h35.7v4h-31.5v63h26.7v4h-26.7v68.3h31.5V177.2z"></path>
</g>
<g class="st0">
	<path class="st5" d="M835.4,177.2H831l-2.7-23.1H793l-2.5,23.1H786L803.5,34h14.3L835.4,177.2z M827.6,150.1L814.4,38H807   l-13.4,112.1H827.6z"></path>
</g>
<g class="st0">
	<path class="st5" d="M917.5,38h-25v139.2h-4.2V38h-24.6v-4h53.8V38z"></path>
	<path class="st5" d="M1002.3,69.9l-4.2-0.4c0.6-4.4,0.8-6.9,0.8-12c0-13.7-2.7-23.3-16.6-23.3c-8.6,0-17,4.8-17,21.4v7.6   c0,11.5,6.3,22.3,15.1,34.9c9.2,13,21.2,30,21.2,46.6v8.8c0,17-8.4,26-23.1,26c-11.1,0-20.4-7.6-20.4-27.5c0-6.9,0.4-11.8,0.8-14.3   l4,0.4c-0.6,3.1-1,8.4-1,13.2c0,19.1,7.4,24.6,16.4,24.6c12,0,19.3-8.2,19.3-22.1v-8.2c0-16-9.7-30.2-20.8-45.8   c-8.4-11.8-15.8-22.1-15.8-36.3v-6.9c0-20.6,9.5-26.3,21.4-26.3c17.6,0,20.6,13.9,20.6,27.1C1003.2,61.9,1003,65.1,1002.3,69.9z"></path>
</g>
</svg>
