<?xml version="1.0" encoding="utf-8"?>
<!-- Generator: Adobe Illustrator 16.0.0, SVG Export Plug-In . SVG Version: 6.00 Build 0)  -->
<!DOCTYPE svg PUBLIC "-//W3C//DTD SVG 1.1 Tiny//EN" "http://www.w3.org/Graphics/SVG/1.1/DTD/svg11-tiny.dtd">
<svg version="1.1" baseProfile="tiny" id="Layer_1" xmlns="http://www.w3.org/2000/svg" xmlns:xlink="http://www.w3.org/1999/xlink"
	 x="0px" y="0px" width="517.907px" height="192.43px" viewBox="0 0 517.907 192.43" xml:space="preserve">
<g>
	<polygon fill="#FFFFFF" points="517.907,192.43 0,192.43 0,0 517.907,0 517.907,192.43 	"/>
	<polygon fill="#C4161C" points="33.424,159.077 484.432,159.077 484.432,137.666 33.424,137.666 33.424,159.077 	"/>
	<polygon fill="#C4161C" points="33.424,53.901 484.432,53.901 484.432,33.535 33.424,33.535 33.424,53.901 	"/>
	<polygon points="33.352,61.562 33.352,129.876 65.65,129.876 65.65,113.464 51.799,113.464 51.799,61.562 33.352,61.562 	"/>
	<path d="M117.917,95.943c0,10.414-2.376,18.877-7.123,25.398c-4.719,6.487-10.872,9.734-18.448,9.734
		c-6.728,0-12.496-2.493-17.304-7.48c-6.047-6.31-9.07-15.777-9.07-28.405c0-12.095,3.157-21.338,9.472-27.742
		c4.691-4.747,10.248-7.123,16.679-7.123c7.877,0,14.141,3.219,18.805,9.645C115.586,76.402,117.917,85.06,117.917,95.943
		 M98.761,96.077c0-12.362-2.187-18.543-6.549-18.543c-2.187,0-3.927,1.624-5.221,4.87c-1.272,3.007-1.902,7.431-1.902,13.271
		c0,5.757,0.597,10.214,1.791,13.383c1.194,3.173,2.856,4.757,4.976,4.757c2.187,0,3.866-1.561,5.048-4.685
		C98.142,106.001,98.761,101.649,98.761,96.077"/>
	<path d="M171.203,129.88h-19.954l-9.115-24.334c-0.089-0.412-0.245-0.959-0.463-1.639c-0.223-0.677-0.497-1.49-0.82-2.433
		l0.134,4.512v23.894h-18.364V61.566h18.894c8.317,0,14.543,1.635,18.671,4.909c5.249,4.189,7.877,10.146,7.877,17.879
		c0,8.256-3.526,13.962-10.577,17.12L171.203,129.88L171.203,129.88z M141.074,93.201h1.239c2.119,0,3.893-0.809,5.305-2.432
		c1.417-1.624,2.125-3.688,2.125-6.198c0-5.099-2.672-7.653-8.005-7.653h-0.664V93.201L141.074,93.201z"/>
	<path d="M174.137,129.88V61.566h15.926c9.115,0,16.211,2.449,21.282,7.341c6.666,6.404,10.002,15.357,10.002,26.86
		c0,11.324-2.817,20.071-8.451,26.235c-4.809,5.255-11.978,7.877-21.505,7.877H174.137L174.137,129.88z M192.584,113.379
		c6.611-0.324,9.914-6.021,9.914-17.081c0-5.456-0.843-9.763-2.522-12.92c-1.679-3.186-3.955-4.781-6.811-4.781h-0.581V113.379
		L192.584,113.379z"/>
	<path d="M262.963,77.954c0,4.931-1.127,8.942-3.375,12.032c-2.237,3.074-5.15,4.608-8.741,4.608c-3.186,0-5.913-1.183-8.196-3.543
		c-2.86-2.99-4.295-7.475-4.295-13.455c0-5.729,1.496-10.107,4.486-13.143c2.225-2.248,4.857-3.369,7.904-3.369
		c3.727,0,6.698,1.522,8.902,4.568C261.858,68.699,262.963,72.8,262.963,77.954 M253.887,78.016c0-5.853-1.033-8.78-3.102-8.78
		c-1.032,0-1.857,0.77-2.473,2.304c-0.602,1.428-0.902,3.525-0.902,6.286c0,2.729,0.283,4.843,0.854,6.343
		c0.563,1.501,1.349,2.254,2.354,2.254c1.03,0,1.828-0.742,2.387-2.22C253.597,82.718,253.887,80.659,253.887,78.016"/>
	<polygon points="275.004,94.029 266.263,94.029 266.263,61.669 281.71,61.669 281.71,69.278 275.004,69.278 275.004,73.991 
		281.252,73.991 281.252,81.305 275.004,81.305 275.004,94.029 	"/>
	<polygon points="241.506,129.798 232.765,129.798 232.765,105.191 227.945,105.191 227.945,97.438 246.516,97.438 246.516,105.191 
		241.506,105.191 241.506,129.798 	"/>
	<polygon points="270,129.798 261.259,129.798 261.259,116.784 257.092,116.784 257.092,129.798 248.351,129.798 248.351,97.438 
		257.092,97.438 257.092,108.885 261.259,108.885 261.259,97.438 270,97.438 270,129.798 	"/>
	<polygon points="274.096,129.798 274.096,97.438 290.341,97.438 290.341,105.047 282.838,105.047 282.838,109.761 289.565,109.761 
		289.565,117.079 282.838,117.079 282.838,122.021 290.341,122.021 290.341,129.798 274.096,129.798 	"/>
	<polygon points="316.49,129.939 298.043,129.939 298.043,61.627 330.648,61.627 330.648,77.688 316.49,77.688 316.49,87.64 
		329.678,87.64 329.678,103.086 316.49,103.086 316.49,129.939 	"/>
	<path d="M383.68,129.939h-19.954l-9.116-24.333c-0.089-0.411-0.245-0.959-0.463-1.64c-0.222-0.675-0.496-1.489-0.819-2.432
		l0.135,4.513v23.892h-18.364V61.627h18.893c8.318,0,14.543,1.635,18.671,4.909c5.25,4.189,7.877,10.147,7.877,17.873
		c0,8.262-3.524,13.969-10.575,17.126L383.68,129.939L383.68,129.939z M353.551,93.263h1.237c2.12,0,3.895-0.814,5.312-2.433
		c1.412-1.623,2.12-3.688,2.12-6.197c0-5.099-2.672-7.654-8.005-7.654h-0.664V93.263L353.551,93.263z"/>
	<polygon points="405.515,129.938 387.066,129.938 387.066,61.625 405.515,61.625 405.515,129.938 	"/>
	<polygon points="412.355,129.939 412.355,61.627 446.646,61.627 446.646,77.688 430.803,77.688 430.803,87.64 445.006,87.64 
		445.006,103.086 430.803,103.086 430.803,113.522 446.646,113.522 446.646,129.939 412.355,129.939 	"/>
	<path d="M450.344,128.259v-21.46c3.626,4.959,7.547,7.436,11.77,7.436c1.59,0,2.891-0.423,3.895-1.26
		c0.998-0.843,1.5-1.896,1.5-3.163c0-1.831-1.088-3.614-3.27-5.355l-3.012-2.343c-2.008-1.507-3.715-3.007-5.132-4.496
		c-1.417-1.49-2.567-3.023-3.453-4.603c-0.881-1.573-1.535-3.202-1.947-4.887c-0.413-1.679-0.62-3.453-0.62-5.311
		c0-3.186,0.737-6.516,2.215-9.997c0.736-1.623,1.597-3.106,2.566-4.445c0.977-1.345,2.092-2.527,3.364-3.564
		c3.475-2.945,7.681-4.424,12.606-4.424c4.396,0,8.819,1.166,13.277,3.497v20.88c-1.506-2.326-3.219-4.161-5.132-5.506
		c-1.919-1.344-3.806-2.014-5.668-2.014c-1.411,0-2.577,0.413-3.491,1.238c-0.95,0.798-1.417,1.758-1.417,2.879
		c0,1.83,1.254,3.643,3.759,5.438l2.923,2.171c3.895,2.8,6.679,5.679,8.362,8.624c1.707,2.951,2.566,6.404,2.566,10.354
		c0,6.728-2.054,12.272-6.152,16.641c-4.101,4.362-9.289,6.549-15.576,6.549C459.943,131.138,455.297,130.178,450.344,128.259"/>
</g>
</svg>
